{"title":"Dead Silence Unrated [2007] HDRip mp4","uid":5591005,"size":2467372327,"categoryP":"video","categoryS":"movies","magnet":"?xt=urn:btih:cd2a9da8c33060e85b7494ba0b3dd9e0290354ac&amp;dn=Dead+Silence+Unrated+%5B2007%5D+HDRip+mp4&amp;tr=udp%3A%2F%2Ftracker.openbittorrent.com%3A80&amp;tr=udp%3A%2F%2Fopen.demonii.com%3A1337&amp;tr=udp%3A%2F%2Ftracker.coppersurfer.tk%3A6969&amp;tr=udp%3A%2F%2Fexodus.desync.com%3A6969","seeders":0,"leechers":1,"uploader":"neon","files":-1,"time":1274866802,"description":"In the wake of his young bride's mysterious death, grieving newlywed Jamie Ashen (Ryan Kwanten) is forced to return to his haunted hometown, where he butts heads with the ghost of a creepy ventriloquist who was infamously murdered years ago. Amber Valletta and Donnie Wahlberg co-star in this chilling horror offering from James Wan and Leigh Whannell, the same team that created the grizzly Saw trilogy. \n\n\nMP4\nFile size : 2.30 GiB\nDuration : 1h 31mn\nOverall bit rate : 3 593 Kbps\n\nVIDEO\nDuration : 1h 31mn\nBit rate mode : Variable\nBit rate : 3 018 Kbps\nMaximum bit rate : 16.8 Mbps\nWidth : 1 280 pixels\nHeight : 528 pixels\nDisplay aspect ratio : 2.40:1\nFrame rate mode : Constant\nFrame rate : 23.976 fps\nResolution : 24 bits\nStream size : 1.93 GiB (84%)\n\nAudio #1\nID : 2\nFormat : AAC\nBit rate mode : Variable\nBit rate : 128 Kbps\nMaximum bit rate : 136 Kbps\nChannel(s) : 2 channels\nChannel positions : L R\nSampling rate : 48.0 KHz\nResolution : 16 bits\nStream size : 83.8 MiB (4%)\n\nAudio #2\nID : 3\nFormat : AAC\nDuration : 1h 31mn\nBit rate mode : Variable\nBit rate : 448 Kbps\nMaximum bit rate : 463 Kbps\nChannel(s) : 6 channels\nChannel positions : Front: L C R, Rear: L R, LFE\nSampling rate : 48.0 KHz\nResolution : 16 bits\nStream size : 293 MiB (12%)\n","torrent":{"xt":"urn:btih:cd2a9da8c33060e85b7494ba0b3dd9e0290354ac","amp;dn":"Dead+Silence+Unrated+%5B2007%5D+HDRip+mp4","amp;tr":["udp%3A%2F%2Ftracker.openbittorrent.com%3A80","udp%3A%2F%2Fopen.demonii.com%3A1337","udp%3A%2F%2Ftracker.coppersurfer.tk%3A6969","udp%3A%2F%2Fexodus.desync.com%3A6969"],"infoHash":"cd2a9da8c33060e85b7494ba0b3dd9e0290354ac","infoHashBuffer":{"type":"Buffer","data":[205,42,157,168,195,48,96,232,91,116,148,186,11,61,217,224,41,3,84,172]},"announce":[],"urlList":[]}}